<?xml version="1.0" encoding="UTF-8"?>
<svg id="Layer_1" data-name="Layer 1" xmlns="http://www.w3.org/2000/svg" viewBox="0 0 422.7 422.7">
  <defs>
    <style>
      .cls-1 {
        fill: #c1aa82;
      }

      .cls-2 {
        fill: #f9f9f8;
      }

      .cls-3 {
        fill: none;
        stroke: #fff;
        stroke-miterlimit: 10;
        stroke-width: 3px;
      }
    </style>
  </defs>
  <path class="cls-2" d="M180.41,197.12c2.74,5.9,2.69,10.71.26,16.71l-4.03,7.02c6.27-.62,14.71-1.33,20.79.53.47.14,1.1-.26.77.81-.51,1.69-5.33,8.36-6.73,10-5.88,6.87-14.96,10.01-19.69,18.06,4.26.62,8.66-1.16,12.94.27-1.53,6.25-5.5,14.21-10.24,18.61-4.41,4.09-10.32,6.04-14.58,10.77-2.49,2.76-4.26,6.15-5.92,9.45,18.01,1.82,35.49,6.47,52.72,11.73,22.38,6.83,45.18,18.92,68.76,9.72,1.72-.67,8.14-4.45,9.21-4.14,2.64.76,1.81,6.82.37,8.73-.75.99-2.38.92-2.71,2.01,22.92-.12,48.34-11.13,63.37-28.57,3.77-4.37,5.78-8.69,8.76-13.33.34-.54-.06-.96,1.21-.7v10.52c0,.96-2.27,7.65-2.82,9.04-2.93,7.41-8.1,13.68-13.89,19.01l7.54,2.15c-10.42,11.05-25.9,18.96-40.87,21.69-29.36,5.35-59.71-10.39-87.75-17.1h-1.34c1.9,2.39-.42,13.25-3.93,12.35-1.14-.29-4.94-7.15-6.33-8.82-9.38-11.35-26.92-16.65-40.74-20.2-2.55-.65-12.77-3.49-14.52-3.29-1.58.18-3.49,5.74-4.49,7.39-8.67,14.4-27.25,30.9-45.15,29.86-7.43-.43-14.45-5.34-15.65-12.93-3.42-21.69,20.56-32.32,38.33-34,2.19-.21,7.68.75,8.85-.86.98-1.36,2.5-8.36,2.68-10.27,1.35-14.46-8.65-26.42-8.56-40.65,7.07,2.22,13.37,6.48,18.87,11.32l-11.36-27.71c5.19-3.62,11-1.05,16.21,1.03-3.72-11.89,2.35-22.34,11.87-29.13-18.77-6.8-34.63-27.48-36.12-47.46-.61-8.11,2.04-14.9-7.55-18.87-.03-1.24,7.02-1.58,8.08-1.35-.59-7.02,1.74-14.03,6.19-19.42,1.45-1.75,4.69-3.9,5.69-5.24,1.23-1.67,1.91-5.52,3.32-7.87,4.96-8.27,20.19-17.62,29.83-17.62h8.9c.21,1.23-.06.86-.69,1.21-1.57.85-3.43,1.25-5.2,2.34-10.91,6.78-6.36,18.64-13.51,25.86-.91.92-8.11,4.98-5.64,6.78,2.95,2.14,9.08-4.71,5.37,4.82-2.61,6.72-8.29,9.25-13.77,13.2,3.29,1.47,7.21,1.02,6.44,5.89-.37,2.35-6.84,6.36-8.83,8.98-7.56,9.99-2.49,22.48,4.09,31.41,3.15,4.28,12.6,14.18,17.98,14.39,1.21.05.64-.04.79-.82,7.9-38.91,18.77-93.71,48.02-122.42,17.27-16.95,41.34-17.21,43.67,11.33,2.84,34.75-16.53,92.69-48.71,109.83-19.4,10.34-30.56,8-30.56,8ZM216,130.23c-15.38,3.98-23.31,19.69-28.19,33.57-2.36,6.72-5.37,17.88-5.19,24.89s9.67,3.12,14.38,1.78c39.42-11.27,56.37-59.55,60.09-96.78.9-9.02-2.71-30.42-14.37-31.42-16.35-1.39-29.35,24.86-34.9,37.41-4.58,10.34-7.81,21.15-11.22,31.92,5.91-2.56,13.84-6.96,19.4-1.36ZM133.49,297.43c-13.15-1.33-37.44,4.8-44,17.52-3.89,7.55.76,17.91,10.86,18.11,14.69.28,28.09-24.09,33.14-35.63Z"/>
  <path class="cls-1" d="M304.99,275.31c-.93.24-1.08-.39-1.62-.8-16.14-12.39-25.07-29.7-36.77-45.2-.78-1.04-1.7-3-3.13-3.06,4.84,22.57,20.71,41.89,38.29,56.08-18.1-3.28-39.29-2.53-54.47,8.91,5.61.29,11.47-1.86,17.16-2.8,9.84-1.64,19.79-2.79,29.76-1.78-17.51,19.85-46.43,23.96-70.09,12.92-1.02-1.39,5.21-9.62,6.44-11.05,14.1-16.35,34.37-20.39,55.02-15.9.17-1.17-2.05-2.32-2.86-2.8-8.7-5.15-18.22-5.39-28.03-4.31-15.5-14.36-11.87-36.22-16.2-55.01-1.66-7.21-4.47-13.95-6.84-20.93,41.38,3.04,74.58,45.16,73.34,85.74Z"/>
  <path class="cls-1" d="M306.07,305.52c.52-10.43-.08-24.03,9.75-30.43,5.51-3.59,20-6.4,15.81-15.36-1.1-2.34-5.73-5.89-6.06-8-.42-2.69,4.4-4.73-1.69-7.97,10.76-6.65-2.29-7.69-2.74-9.8-.54-2.54,4.53-5.94,3.16-10.58-1.58-5.34-21.3-2.37-20.85-7.02.13-1.37,3.25-6.33,2.08-7.92l-6.74,4.84c-2.53-5.27-5.8-11.28-11.23-14.11-1.83-.95-6.33-1.83-7.23-2.75-.52-.53-.9-2.15-1.54-3.05-3.96-5.52-9.19-6.89-15.86-6.52.93-1.36,3.02-2.11,4.49-2.78,26.81-12.39,61.68-4.16,78.46,20.42,26.01,38.07,5.53,92.1-39.81,101.02Z"/>
  <circle class="cls-3" cx="211.35" cy="211.35" r="209.85"/>
</svg>